<?xml version="1.0" encoding="UTF-8"?>
<svg width="41px" height="25px" viewBox="0 0 41 25" version="1.1" xmlns="http://www.w3.org/2000/svg" xmlns:xlink="http://www.w3.org/1999/xlink">
    <title>bike</title>
    <g id="Onepager" stroke="none" stroke-width="1" fill="none" fill-rule="evenodd">
        <g id="Desktop-the-bridge-v2" transform="translate(-1062.000000, -6614.000000)" stroke="#6E817D" stroke-width="0.712">
            <g id="map" transform="translate(0.000000, 5163.000000)">
                <g id="Group-38" transform="translate(225.000000, 465.199385)">
                    <g id="afstanden" transform="translate(47.000000, 986.800615)">
                        <g id="bike" transform="translate(791.000000, 0.000000)">
                            <g id="Group-34" transform="translate(0.000000, 7.665329)">
                                <path d="M39,7.66733552 C39,11.9028477 35.6197528,15.334671 31.4518408,15.334671 C27.2821627,15.334671 23.9036816,11.9028477 23.9036816,7.66733552 C23.9036816,3.43182332 27.2821627,0 31.4518408,0 C35.6197528,0 39,3.43182332 39,7.66733552 Z M15.0963184,7.66733552 C15.0963184,11.9028477 11.7178373,15.334671 7.54815922,15.334671 C3.38024725,15.334671 0,11.9028477 0,7.66733552 C0,3.43182332 3.38024725,0 7.54815922,0 C11.7178373,0 15.0963184,3.43182332 15.0963184,7.66733552 Z" id="Stroke-32"></path>
                            </g>
                            <polyline id="Stroke-35" stroke-linecap="round" stroke-linejoin="round" points="32 15 26.2129964 0 23 0"></polyline>
                            <line x1="14" y1="1" x2="9" y2="1" id="Stroke-36" stroke-linecap="round"></line>
                            <polyline id="Stroke-37" stroke-linecap="round" stroke-linejoin="round" points="10.8400719 1 18.5202156 15 7 15 12.2362983 3.54594181 27 3.54594181 18.5202156 15"></polyline>
                        </g>
                    </g>
                </g>
            </g>
        </g>
    </g>
</svg>