<?xml version="1.0" encoding="UTF-8"?>
<svg width="77px" height="77px" viewBox="0 0 77 77" version="1.1" xmlns="http://www.w3.org/2000/svg" xmlns:xlink="http://www.w3.org/1999/xlink">
    <title>pointer</title>
    <g id="Onepager" stroke="none" stroke-width="1" fill="none" fill-rule="evenodd">
        <g id="Desktop-the-bridge-v2" transform="translate(-1020.000000, -6434.000000)">
            <g id="map" transform="translate(0.000000, 5163.000000)">
                <g transform="translate(200.000000, 621.000000)" id="Group">
                    <g transform="translate(820.000000, 650.000000)">
                        <path d="M38.5,77 C59.7604921,77 77,59.7630993 77,38.4983203 C77,17.2369007 59.7604921,0 38.5,0 C17.2395079,0 0,17.2369007 0,38.4983203 C0,59.7630993 17.2395079,77 38.5,77" id="Fill-2" fill="#9E6D59"></path>
                        <g id="Group-7-Copy" transform="translate(26.000000, 14.000000)" fill="#FFFFFF">
                            <g id="Group-6" transform="translate(0.000000, -0.000000)">
                                <path d="M3.71915123,41.5058204 L3.22980169,41.5058204 L3.22980169,44.2955688 L3.71915123,44.2955688 L3.71915123,43.2020697 L6.82136518,43.2020697 L6.82136518,42.5994802 L3.71915123,42.5994802 L3.71915123,41.5058204 Z M6.82136518,36.9973259 L3.22980169,36.9973259 L3.22980169,37.6000761 L4.76338114,37.6000761 L4.76338114,39.212445 L3.22980169,39.212445 L3.22980169,39.8150345 L6.82136518,39.8150345 L6.82136518,39.212445 L5.25273068,39.212445 L5.25273068,37.6000761 L6.82136518,37.6000761 L6.82136518,36.9973259 Z M6.82136518,32.4163599 L6.33217354,32.4163599 L6.33217354,34.3525202 L5.25273068,34.3525202 L5.25273068,32.7007822 L4.76843412,32.7007822 L4.76843412,34.3525202 L3.71915123,34.3525202 L3.71915123,32.4163599 L3.22980169,32.4163599 L3.22980169,34.9552705 L6.82136518,34.9552705 L6.82136518,32.4163599 Z M5.80761105,25.4361235 C5.35347447,25.4361235 5.08614024,25.7263306 4.97513259,26.0330889 C4.87944178,25.7653785 4.60200159,25.4975073 4.21339584,25.4975073 C3.60814357,25.4975073 3.22980169,25.9606175 3.22980169,26.6970622 L3.22980169,28.2427445 L6.82136518,28.2427445 L6.82136518,26.6356784 C6.82136518,25.932818 6.46828819,25.4361235 5.80761105,25.4361235 L5.80761105,25.4361235 Z M5.78234615,26.0387131 C6.10021018,26.0387131 6.33217354,26.2731606 6.33217354,26.6915987 L6.33217354,27.6403157 L5.23757174,27.6403157 L5.23757174,26.6915987 C5.23757174,26.2731606 5.46448212,26.0387131 5.78234615,26.0387131 L5.78234615,26.0387131 Z M4.23360776,26.1000968 C4.56663073,26.1000968 4.7482222,26.3623438 4.7482222,26.7473583 L4.7482222,27.6403157 L3.71915123,27.6403157 L3.71915123,26.7473583 C3.71915123,26.3623438 3.9007427,26.1000968 4.23360776,26.1000968 L4.23360776,26.1000968 Z M6.82136518,20.6432068 L5.23251876,21.5581787 C5.1215111,21.1117804 4.79369902,20.7658137 4.27908458,20.7658137 C3.66862143,20.7658137 3.22980169,21.2457963 3.22980169,21.9989529 L3.22980169,23.539011 L6.82136518,23.539011 L6.82136518,22.9362608 L5.30815555,22.9362608 L5.30815555,22.1832649 L6.82136518,21.3462279 L6.82136518,20.6432068 Z M4.28413756,21.3684032 C4.63721454,21.3684032 4.84391301,21.6418985 4.84391301,22.0436248 L4.84391301,22.9362608 L3.71915123,22.9362608 L3.71915123,22.0436248 C3.71915123,21.6418985 3.93106058,21.3684032 4.28413756,21.3684032 L4.28413756,21.3684032 Z M3.22980169,18.8799495 L6.82136518,18.8799495 L6.82136518,18.2773599 L3.22980169,18.2773599 L3.22980169,18.8799495 Z M5.00039749,13.4118111 C4.48088797,13.4118111 3.95632548,13.3838509 3.56771973,13.8135374 C3.34080935,14.0646967 3.22980169,14.4272146 3.22980169,14.8401893 L3.22980169,16.2351439 L6.82136518,16.2351439 L6.82136518,14.8401893 C6.82136518,14.4272146 6.71051543,14.0646967 6.48344713,13.8135374 C6.0951572,13.3838509 5.519907,13.4118111 5.00039749,13.4118111 L5.00039749,13.4118111 Z M5.00039749,14.0144006 C5.4946421,14.0144006 5.88324785,14.0198641 6.08994631,14.2263514 C6.25653675,14.393791 6.33217354,14.6169901 6.33217354,14.9015731 L6.33217354,15.6325543 L3.71915123,15.6325543 L3.71915123,14.9015731 C3.71915123,14.6169901 3.79478803,14.393791 3.96122056,14.2263514 C4.16823483,14.0198641 4.50615287,14.0144006 5.00039749,14.0144006 L5.00039749,14.0144006 Z M5.42926917,8.78070969 L4.87944178,8.78070969 L4.87944178,10.2314239 L5.34352641,10.2314239 L5.34352641,9.38329922 L5.5451719,9.38329922 C5.77729317,9.38329922 5.95888464,9.43905884 6.11015823,9.58416239 C6.27153778,9.7403536 6.36233352,9.96901624 6.36233352,10.2314239 C6.36233352,10.4657107 6.28164374,10.6776615 6.14537119,10.8173016 C5.95383166,11.0125406 5.74697529,11.0572126 5.02566239,11.0572126 C4.30434948,11.0572126 4.10254609,11.0125406 3.91084866,10.8173016 C3.77457611,10.6776615 3.68883335,10.4657107 3.68883335,10.2314239 C3.68883335,9.78502557 3.92079672,9.49481845 4.31445544,9.39438686 L4.31445544,8.78617317 C3.69893931,8.89785309 3.19964172,9.38892339 3.19964172,10.2314239 C3.19964172,10.6554862 3.33575637,11.001453 3.58287867,11.2747876 C3.93611356,11.6652656 4.33466736,11.6598062 5.02566239,11.6598062 C5.71681532,11.6598062 6.11521121,11.6652656 6.46828819,11.2747876 C6.7154105,11.001453 6.85184096,10.6442379 6.85184096,10.2314239 C6.85184096,9.81282503 6.73072735,9.43905884 6.44302329,9.13760338 C6.19084801,8.87551711 5.8931959,8.78070969 5.42926917,8.78070969 L5.42926917,8.78070969 Z M6.82136518,4.3503108 L6.33217354,4.3503108 L6.33217354,6.28663181 L5.25273068,6.28663181 L5.25273068,4.63489374 L4.76843412,4.63489374 L4.76843412,6.28663181 L3.71915123,6.28663181 L3.71915123,4.3503108 L3.22980169,4.3503108 L3.22980169,6.88922134 L6.82136518,6.88922134 L6.82136518,4.3503108 Z" id="Fill-2"></path>
                                <path d="M25.1027312,4.10095121 C27.182822,6.26979144 28.0822525,9.52907768 27.7751261,13.7843239 L27.7737049,13.8195151 C27.7732312,13.8428152 27.7260174,16.1700963 26.5339878,18.5010733 C24.9670903,21.5654419 22.2327965,23.2097882 18.4062694,23.3887975 C18.2532588,23.3887975 18.1045117,23.3887975 17.9557646,23.3889582 C17.8862862,23.3881547 17.8281769,23.3884761 17.7781208,23.3889582 C16.5635107,23.3892796 15.4998584,23.3905651 14.5712154,23.3926541 L10.0540092,23.3926541 L10.0540092,1.18313238 L17.6336372,1.18313238 L17.6619023,1.18232893 C17.7061158,1.18023995 22.126526,0.997695495 25.1027312,4.10095121 L25.1027312,4.10095121 Z M25.1186797,27.4995829 C27.1930859,29.6687445 28.0892003,32.9240135 27.7828634,37.1726714 L27.7812844,37.2086661 C27.7811265,37.2314841 27.7403868,39.521485 26.5598843,41.8521406 C24.9956712,44.9404521 22.2534821,46.597493 18.4084801,46.7773057 C15.5552833,46.7773057 12.657873,46.7822871 10.0540092,46.7890361 L10.0540092,24.5970297 C10.7366352,24.588031 12.0532523,24.577104 14.5784791,24.5716406 L17.635532,24.5716406 L17.6631655,24.5709978 C17.7076949,24.5687232 22.1522646,24.397452 25.1186797,27.4995829 L25.1186797,27.4995829 Z M1.16234332,1.18313238 L8.89545558,1.18313238 L8.89545558,46.7920892 C5.22304442,46.8025341 2.29073693,46.81555 1.15871149,46.8208528 L1.16234332,1.18313238 Z M17.6206889,0.00430657273 L0.606041796,0.00430657273 L0.606041796,0.00430657273 L0.00394764067,0.00430657273 L0,48 L1.15871149,48 C1.24903351,47.9990359 9.7910963,47.9562922 18.4217441,47.9562922 L18.4477986,47.9556494 C23.7992203,47.7099536 26.3727662,44.7947058 27.5897448,42.3922215 C28.8484106,39.9071423 28.9338375,37.5022477 28.9392063,37.2427325 C28.9797881,36.6767804 29,36.1273794 29,35.5930834 C29,31.7861638 27.9736134,28.7886424 25.939789,26.667688 C24.6192242,25.2907307 23.0715911,24.4898491 21.6701787,24.02465 C24.8894007,23.0251548 26.6423111,20.8614567 27.582797,19.0037133 C28.8408311,16.5186341 28.9261002,14.1142216 28.9316269,13.854385 C28.9720507,13.2885936 28.9922626,12.7387105 28.9922626,12.2045752 C28.9922626,8.39637006 27.9657181,5.39836664 25.9317358,3.27741219 C22.6553519,-0.138868699 17.9799242,-0.0109590286 17.6206889,0.00430657273 L17.6206889,0.00430657273 Z" id="Fill-4"></path>
                            </g>
                        </g>
                    </g>
                </g>
            </g>
        </g>
    </g>
</svg>