<?xml version="1.0" encoding="UTF-8"?>
<svg width="33px" height="23px" viewBox="0 0 33 23" version="1.1" xmlns="http://www.w3.org/2000/svg" xmlns:xlink="http://www.w3.org/1999/xlink">
    <title>car</title>
    <g id="Onepager" stroke="none" stroke-width="1" fill="none" fill-rule="evenodd">
        <g id="Desktop-the-bridge-v2" transform="translate(-743.000000, -6619.000000)" stroke="#6E817D" stroke-width="0.64">
            <g id="map" transform="translate(0.000000, 5163.000000)">
                <g id="Group-38" transform="translate(225.000000, 465.199385)">
                    <g id="afstanden" transform="translate(47.000000, 986.800615)">
                        <g id="car" transform="translate(471.912838, 5.199385)">
                            <path d="M29.2300192,16.7560507 L29.2300192,11.4042259 C29.2300192,10.86796 29.1371621,10.3353054 28.9568049,9.82973492 L26.0746621,2.22631579 C25.5657335,0.884748367 24.2925192,0 22.8728764,0 L9.30144778,0 C7.88180493,0 6.60859064,0.884748367 6.09966207,2.22631579 L3.21751921,9.82973492 C3.03716207,10.3353054 2.94430493,10.86796 2.94430493,11.4042259 L2.94430493,16.7560507 C2.94430493,17.3934307 3.45680493,17.9116404 4.08716207,17.9116404 L28.0871621,17.9116404 C28.7175192,17.9116404 29.2300192,17.3934307 29.2300192,16.7560507 Z" id="Stroke-20" stroke-linecap="round" stroke-linejoin="round"></path>
                            <path d="M2.94430493,16.7560507 L2.94430493,19.645025 C2.94430493,20.2824049 3.45680493,20.8006147 4.08716207,20.8006147 L5.80144778,20.8006147 C6.43180493,20.8006147 6.94430493,20.2824049 6.94430493,19.645025 L6.94430493,17.9116404 M29.2300192,16.7560507 L29.2300192,19.645025 C29.2300192,20.2824049 28.7175192,20.8006147 28.0871621,20.8006147 L26.3728764,20.8006147 C25.7425192,20.8006147 25.2300192,20.2824049 25.2300192,19.645025 L25.2300192,17.9116404" id="Stroke-22"></path>
                            <path d="M4.08716207,8.08912793 L4.92109064,8.37080292 C5.50501921,8.56761429 6.11394778,8.66692278 6.7282335,8.66692278 L25.4460906,8.66692278 C26.0603764,8.66692278 26.6693049,8.56761429 27.2532335,8.37080292 L28.0871621,8.08912793" id="Stroke-24" stroke-linecap="round" stroke-linejoin="round"></path>
                            <path d="M8.65859064,13.8670765 L6.37287636,13.8670765 C5.42644778,13.8670765 4.65859064,13.0906646 4.65859064,12.1336919 C4.65859064,11.8140991 4.91394778,11.555897 5.23001921,11.555897 L7.5157335,11.555897 C8.46216207,11.555897 9.23001921,12.3323089 9.23001921,13.2892816 C9.23001921,13.6088744 8.97466207,13.8670765 8.65859064,13.8670765 Z" id="Stroke-26"></path>
                            <line x1="20.0871621" y1="15.8006147" x2="11.0871621" y2="15.8006147" id="Stroke-29" stroke-linecap="round"></line>
                            <path d="M25.4313273,13.4115671 L23.1707648,13.4115671 C22.8581714,13.4115671 22.6056242,13.1550324 22.6056242,12.8375036 C22.6056242,11.8867109 23.3650319,11.1153131 24.3010461,11.1153131 L26.5616085,11.1153131 C26.8742019,11.1153131 27.1267491,11.3718477 27.1267491,11.6893766 C27.1267491,12.6401692 26.3673414,13.4115671 25.4313273,13.4115671 Z M3.39084364,7.09686865 L1.41285151,7.09686865 C0.632251053,7.09686865 0,6.45463511 0,5.66170991 C0,5.18631358 0.379703845,4.80061468 0.847710909,4.80061468 L2.54313273,4.80061468 C3.01113979,4.80061468 3.39084364,5.18631358 3.39084364,5.66170991 L3.39084364,7.09686865 Z M28.2570303,7.09686865 L30.2350224,7.09686865 C31.0156229,7.09686865 31.6478739,6.45463511 31.6478739,5.66170991 C31.6478739,5.18631358 31.2681701,4.80061468 30.800163,4.80061468 L29.1047412,4.80061468 C28.6367341,4.80061468 28.2570303,5.18631358 28.2570303,5.66170991 L28.2570303,7.09686865 Z" id="Stroke-30"></path>
                        </g>
                    </g>
                </g>
            </g>
        </g>
    </g>
</svg>