<?xml version="1.0" encoding="UTF-8"?>
<svg width="115px" height="117px" viewBox="0 0 115 117" version="1.1" xmlns="http://www.w3.org/2000/svg" xmlns:xlink="http://www.w3.org/1999/xlink">
    <title>logo cransa</title>
    <defs>
        <polygon id="path-1" points="-1.14666501e-14 0 4.28137834 0 4.28137834 6.41736735 -1.14666501e-14 6.41736735"></polygon>
        <polygon id="path-3" points="0 1.14666501e-14 3.62718922 1.14666501e-14 3.62718922 6.30198154 0 6.30198154"></polygon>
        <polygon id="path-5" points="0 -1.14666501e-14 7.29994776 -1.14666501e-14 7.29994776 7.1069186 0 7.1069186"></polygon>
    </defs>
    <g id="Onepager" stroke="none" stroke-width="1" fill="none" fill-rule="evenodd">
        <g id="Desktop-the-bridge-v2" transform="translate(-266.000000, -8313.000000)">
            <g id="footer" transform="translate(-59.000000, 8287.000000)">
                <g id="logo-cransa" transform="translate(325.000000, 26.002000)">
                    <path d="M68.4788149,19.3828794 C68.4788149,13.8925724 67.1212161,8.26610219 64.068737,6.19742828 C62.3484395,8.59934931 61.8332378,12.1000579 61.4340271,16.1010407 C61.7932966,16.1774939 62.1505488,16.2640332 62.50417,16.3642898 C63.2971448,16.5928424 64.0727715,16.8871569 64.8060362,17.2625643 C65.538494,17.6367613 66.2285899,18.0970941 66.8260947,18.6477991 C65.3617843,17.9468102 63.8442188,17.5149203 62.3000259,17.2492505 C61.528232,17.1163148 60.7507898,17.0231185 59.9695149,16.9636101 C59.1876349,16.9099517 58.4039393,16.8762639 57.6174196,16.8758604 C56.0413543,16.8730363 54.4658943,16.9450516 52.8978979,17.1195423 C51.3280861,17.2950417 49.7723949,17.5772528 48.2056089,18.0040996 C49.4708184,17.1907507 50.9080979,16.6559819 52.3766446,16.296309 C52.107142,13.5627546 51.7922518,11.0561391 51.0888421,8.96527564 C50.742483,7.93507402 50.3011121,7.00633929 49.7247882,6.20065586 C46.7776087,8.2576298 45.4099238,14.2252144 45.3175344,17.8895207 C44.4858287,17.2159662 43.2952569,16.7017731 42.4726287,16.7017731 C42.4726287,19.6816318 43.9579184,22.1892559 45.5565767,24.1028045 C45.9394478,23.2975245 46.5421974,22.5991579 47.5054269,21.8896966 C49.7510122,20.3826207 53.3380585,19.70483 57.1199696,19.70483 C60.814131,19.70483 64.9698356,20.6283199 65.4315806,22.0135548 C63.5846007,21.2439798 60.660216,20.7822349 57.1199696,20.7822349 C52.348605,20.7822349 46.8074638,22.3213848 46.8074638,24.9381412 C46.8074638,25.3998862 47.2669898,25.9715704 47.8828514,26.2794004 C48.4741028,26.20678 49.9763373,26.0330961 50.9960493,25.9227534 C50.0725594,25.7688384 48.8085603,25.3998862 48.8085603,24.9381412 C48.8085603,24.0144496 52.19469,23.0909597 57.1199696,23.0909597 C62.0454509,23.0909597 65.5854956,24.0144496 65.5854956,24.9381412 C65.5854956,25.3998862 64.3862497,25.7688384 63.3088448,25.9227534 C64.4009755,26.1085407 66.5410595,26.3875242 66.5410595,26.3875242 L67.0306423,26.1694611 C67.3380688,25.9858928 67.6285506,25.7510867 67.8683998,25.473717 C70.1845883,23.462736 72.2946155,20.4574601 72.2946155,16.7017731 C70.9087755,16.7017731 68.4792183,18.1608388 68.4788149,19.3828794" id="Fill-1" fill="#FEFEFE"></path>
                    <path d="M53.6537355,16.0303568 C54.9643327,15.8028127 56.295304,15.7011441 57.6232494,15.7102217 C58.4432552,15.7158699 59.2650765,15.7691249 60.0820564,15.8701884 C60.1056581,15.8732142 60.129058,15.8774504 60.1524579,15.8804763 C60.4340638,13.0769239 60.7788092,10.5033362 61.5540324,8.31524202 C61.724287,7.83473678 61.9149156,7.37258837 62.130558,6.93101576 C60.8358969,5.8368678 59.2412731,5.27789215 57.8850864,5.27789215 L57.8850864,3.34659191 L60.0185136,3.34659191 L60.0185136,2.08279454 L57.8850864,2.08279454 L57.8850864,0 L56.5012636,0 L56.5012636,2.08279454 L54.3676348,2.08279454 L54.3676348,3.34659191 L56.5012636,3.34659191 L56.5012636,5.27789215 C54.8602434,5.27789215 53.1593113,5.99058107 51.8713072,7.38812108 C52.0030326,7.688689 52.1246718,7.99793104 52.2370318,8.31524202 C53.0261739,10.5422688 53.3693055,13.168708 53.6537355,16.0303568" id="Fill-3" fill="#FEFEFE"></path>
                    <path d="M65.0917371,55.7670911 C66.685554,55.7670911 67.4730823,54.6985621 67.9043671,52.7860221 L68.0732096,52.692019 C68.485734,52.710981 68.9170187,52.9171424 69.1229784,53.2358654 C69.0293787,54.2485171 68.6358163,55.8984131 68.2983329,56.5358592 C67.1541576,56.9483836 65.785464,57.1357847 64.3417293,57.1357847 C60.1418473,57.1357847 57.4980598,55.2607653 57.4980598,51.4546474 C57.4980598,47.3858856 60.4791289,44.6856156 64.7919761,44.6856156 C66.1229473,44.6856156 66.8731568,44.8356978 67.6044043,45.0983417 C67.6604834,44.9859818 67.7732468,44.8171393 67.8856068,44.6856156 C68.2045315,44.6293347 68.7669365,44.6856156 69.1229784,44.7981772 L69.2167798,44.966818 C69.0479372,45.99823 68.8792965,47.779448 68.8792965,48.998261 L68.7669365,49.1108227 C68.4480117,49.1669018 68.016727,49.129583 67.716966,49.0357816 C67.6604834,48.5669763 67.5293632,47.8544891 67.3980412,47.3481633 C67.1918799,46.4484767 65.916786,45.99823 64.6231335,45.99823 C62.5419528,45.99823 60.6292111,47.5357661 60.6292111,50.8359616 C60.6292111,54.1545139 62.4104291,55.7670911 65.0917371,55.7670911 M56.1327956,41.9934145 C55.9451928,41.7307706 55.8328328,41.3370064 55.8328328,40.9807628 L55.9076722,40.8496426 C56.2451555,40.7746015 56.54532,40.6995603 56.8265225,40.6059607 C57.4641703,40.3993959 57.55777,40.0431523 57.6515714,37.9242492 C57.7076505,36.3871166 57.7453728,34.4182958 57.7453728,32.7119172 L57.5765303,32.7119172 C56.3387552,35.1681018 54.895424,38.2808963 53.2451245,41.8433323 C52.963922,42.0684556 52.4575962,42.1620553 52.082794,42.1057745 L51.9139515,41.9746542 C50.6953402,38.8995821 49.2136815,35.1681018 48.3325535,33.0496022 L48.1639127,33.0496022 C48.0327925,34.9246216 47.9200291,38.4682974 47.9200291,40.5309195 L47.9950702,40.6059607 C48.3888343,40.5309195 48.7450779,40.4931973 49.0640027,40.4931973 C49.2887226,40.4931973 49.4388049,40.5121593 49.5699251,40.5682384 L49.6449662,40.7183206 C49.6449662,41.1120848 49.5326063,41.5244075 49.3452052,41.824572 C48.3325535,41.824572 46.2513728,41.8618908 44.8449569,41.9934145 C44.6761144,41.7307706 44.5825147,41.3559684 44.5825147,40.9995231 L44.6761144,40.8496426 C45.0135977,40.7746015 45.2952036,40.6995603 45.5764061,40.6059607 C46.1575714,40.4183579 46.3074519,40.1369537 46.5325752,37.4183268 C46.6638972,35.7680274 46.8700586,32.8430374 46.9450997,31.3244634 C46.4760927,31.3244634 45.8951292,31.3993028 45.3888033,31.5120662 C45.2014022,31.2304602 45.1263611,30.8368978 45.1263611,30.4243734 L45.2762416,30.2742911 C46.1386093,30.0493695 47.6015078,29.8617667 49.0450407,29.8617667 C49.7764899,29.8617667 50.0389321,29.9180475 50.2075729,30.0493695 C51.1639437,32.7679963 52.0640337,35.1870638 53.2451245,38.2058552 L53.3952067,38.2058552 C54.7453417,35.6183486 55.9451928,33.1054796 57.3326466,30.1246123 C58.5514597,29.9368078 60.4079205,29.8617667 62.1328576,29.8617667 L62.2452176,29.9930886 C62.2452176,30.4243734 62.1701765,30.8183392 62.0204977,31.1368606 C60.6516024,31.1931414 60.5202804,31.3244634 60.4829616,32.2616705 C60.426479,33.5367644 60.426479,38.7682601 60.426479,40.5309195 L60.5015202,40.6059607 C60.8577638,40.5309195 61.2329694,40.4931973 61.570251,40.4931973 C61.776614,40.4931973 61.9454566,40.5121593 62.0763751,40.5682384 L62.1514162,40.7183206 C62.1514162,41.1308451 62.0390562,41.5433695 61.8328949,41.824572 C60.5580027,41.824572 57.9140136,41.8618908 56.1327956,41.9934145 M72.0630975,26.8994579 C70.7369676,26.5389781 63.9336428,25.3296461 57.0980422,25.3296461 C50.26224,25.3296461 43.4589151,26.5389781 42.1327852,26.8994579 C41.8197104,26.988418 41.5262028,27.0771763 41.251859,27.1645225 L41.251859,57.5220851 C41.251859,59.023311 42.5862595,59.6906121 44.2543107,60.1908862 L52.2607141,62.5262385 C54.76269,63.193338 56.2639158,64.0272627 57.0980422,64.8613891 C57.931967,64.0272627 59.4331928,63.193338 61.9351687,62.5262385 L69.9415721,60.1908862 C71.6096232,59.6906121 72.9440238,59.023311 72.9440238,57.5220851 L72.9440238,27.1645225 C72.6696799,27.0771763 72.3761723,26.988418 72.0630975,26.8994579" id="Fill-5" fill="#FEFEFE"></path>
                    <path d="M27.2168294,56.9753742 C25.8973564,52.6867338 23.5880264,51.8620884 20.7840706,52.5219258 C21.9385338,56.8103644 24.2478638,57.8000197 27.2168294,56.9753742" id="Fill-7" fill="#FEFEFE"></path>
                    <path d="M29.19616,34.3779713 C26.2271944,33.8831437 24.7427116,35.8624541 24.0828742,39.9860847 C26.3920024,40.3159025 28.5363226,38.3365921 29.19616,34.3779713" id="Fill-9" fill="#FEFEFE"></path>
                    <path d="M30.0208861,62.2536093 C28.2065855,58.1299787 26.3920831,57.8001609 23.2581077,58.2949885 C24.7425905,62.4186191 26.721901,63.5730823 30.0208861,62.2536093" id="Fill-11" fill="#FEFEFE"></path>
                    <path d="M28.7013122,39.9861049 C25.5673368,39.9861049 24.082854,41.8004055 24.082854,45.5942183 C26.392184,45.4292085 28.7013122,43.4498981 28.7013122,39.9861049" id="Fill-13" fill="#FEFEFE"></path>
                    <path d="M24.9076003,51.5322101 C24.4127727,47.2435697 22.1034427,45.9240966 19.4644967,46.2539145 C19.7943145,50.5425549 21.7736249,52.0270377 24.9076003,51.5322101" id="Fill-15" fill="#FEFEFE"></path>
                    <path d="M30.8456123,61.9237108 C33.9795877,60.2742182 34.1443957,57.6350704 32.1650853,54.5012967 C29.855957,55.8207698 29.5261392,58.4599176 30.8456123,61.9237108" id="Fill-17" fill="#FEFEFE"></path>
                    <path d="M34.8042734,66.8720473 C37.9382488,64.8927369 37.608431,61.7587615 35.299101,59.1196137 C32.824963,61.2639339 32.4951452,63.4082541 34.8042734,66.8720473" id="Fill-19" fill="#FEFEFE"></path>
                    <path d="M30.1858354,70.5008302 C33.3198108,73.9646234 36.9486138,73.6348056 39.4227518,71.1606675 C36.4537862,67.8616824 32.8249832,68.35651 30.1858354,70.5008302" id="Fill-21" fill="#FEFEFE"></path>
                    <path d="M33.9795473,67.2019257 C32.0002369,63.7381325 29.1960793,63.2433049 26.0623056,64.7277877 C28.2064241,68.5213987 31.0105817,69.0162263 33.9795473,67.2019257" id="Fill-23" fill="#FEFEFE"></path>
                    <path d="M28.7013122,44.769472 C25.8973564,45.7591272 24.7426914,47.7384376 25.5673368,51.3672406 C28.7013122,50.872413 29.8559772,48.0684572 28.7013122,44.769472" id="Fill-25" fill="#FEFEFE"></path>
                    <path d="M30.1858354,49.7178287 C27.7116974,50.8724937 26.8868502,53.0166122 27.8767071,56.6454152 C30.680663,55.8207698 31.835328,53.0166122 30.1858354,49.7178287" id="Fill-27" fill="#FEFEFE"></path>
                    <path d="M43.3813928,66.3771996 C42.7215554,67.6966726 42.2267278,69.0163474 42.5567474,70.3358204 C43.5464026,69.511175 44.5360578,69.0163474 45.8555308,68.35651 C45.3607032,67.5318645 44.371048,66.8720272 43.3813928,66.3771996" id="Fill-29" fill="#FEFEFE"></path>
                    <path d="M38.9278839,62.913366 C36.9485735,65.5525138 37.1135832,67.861642 39.9175391,70.6657996 C42.5566869,68.1916616 41.8968495,65.2224942 38.9278839,62.913366" id="Fill-31" fill="#FEFEFE"></path>
                    <path d="M30.5157137,27.1204258 C28.2065855,27.1204258 25.2374181,30.2544012 25.2374181,34.0480122 C28.5364033,34.0480122 30.5157137,31.4090662 30.5157137,27.1204258" id="Fill-33" fill="#FEFEFE"></path>
                    <path d="M31.6703384,20.3577079 C28.3713532,20.3577079 26.3920428,22.8318459 26.3920428,26.7904668 C29.5260182,26.7904668 31.6703384,23.8215011 31.6703384,20.3577079" id="Fill-35" fill="#FEFEFE"></path>
                    <path d="M24.2478235,33.2233668 C25.5672965,29.7595736 25.0724689,26.1307706 22.7633406,24.6462878 C20.7840302,28.4398988 21.7736854,31.738884 24.2478235,33.2233668" id="Fill-37" fill="#FEFEFE"></path>
                    <path d="M23.2581481,45.5941981 C23.2581481,41.6355773 21.7736653,40.1510945 18.8046996,40.1510945 C18.8046996,43.4498779 20.4541922,45.5941981 23.2581481,45.5941981" id="Fill-39" fill="#FEFEFE"></path>
                    <path d="M23.2581481,39.8211354 C24.0827935,35.0376675 22.7633205,33.2233668 20.2891825,32.7285392 C19.6293451,36.522352 20.4541922,39.4913176 23.2581481,39.8211354" id="Fill-41" fill="#FEFEFE"></path>
                    <path d="M85.6071524,39.9861049 C85.4421426,43.4498981 87.7514726,45.4292085 90.0606008,45.5942183 C90.0606008,41.8004055 88.576118,39.9861049 85.6071524,39.9861049" id="Fill-43" fill="#FEFEFE"></path>
                    <path d="M74.2259763,70.6657593 C77.1949419,67.6967936 77.3599517,65.5524734 75.2156315,62.9133256 C72.0816561,65.5524734 71.916848,68.0266115 74.2259763,70.6657593" id="Fill-45" fill="#FEFEFE"></path>
                    <path d="M79.3392621,66.8720473 C81.6483904,63.4082541 81.4835823,61.2639339 79.0094443,59.1196137 C76.5353063,61.7587615 76.3702965,64.8927369 79.3392621,66.8720473" id="Fill-47" fill="#FEFEFE"></path>
                    <path d="M83.2979435,61.9237108 C84.7824263,58.4599176 84.4526084,55.8207698 81.9784704,54.5012967 C79.99916,57.6350704 80.3289778,60.2742182 83.2979435,61.9237108" id="Fill-49" fill="#FEFEFE"></path>
                    <path d="M58.8861592,75.7790451 L56.9068488,77.2635279 C50.8039077,81.8819861 48.6595876,84.6859419 48.6595876,87.3250897 C48.6595876,88.9745823 49.484233,89.9642375 50.638898,89.9642375 C51.4637451,89.9642375 52.6182084,88.9745823 52.6182084,87.3250897 C52.6182084,85.1809713 56.4120212,81.2221487 60.2056322,78.0881733 L58.8861592,75.7790451 Z" id="Fill-51" fill="#FEFEFE"></path>
                    <path d="M61.030439,79.7377062 C60.2057936,80.3975436 59.5459562,81.0571793 59.0511286,81.8820264 C60.8654293,83.8613369 62.185104,86.005657 62.185104,87.3251301 C62.185104,88.9746227 63.3395673,89.9642779 64.1644144,89.9642779 C65.3190794,89.9642779 66.1437248,88.9746227 66.1437248,87.3251301 C66.1437248,85.1808099 64.8242518,82.8716816 61.030439,79.7377062" id="Fill-53" fill="#FEFEFE"></path>
                    <path d="M87.9163815,26.7905474 C87.9163815,22.8319266 85.7720613,20.3577886 82.6380859,20.3577886 C82.6380859,23.8215818 84.617598,26.7905474 87.9163815,26.7905474" id="Fill-55" fill="#FEFEFE"></path>
                    <path d="M90.8853875,45.5941981 C93.689545,45.5941981 95.3388359,43.4498779 95.3388359,40.1510945 C92.3698703,40.1510945 90.8853875,41.6355773 90.8853875,45.5941981" id="Fill-57" fill="#FEFEFE"></path>
                    <path d="M89.2359352,51.5322101 C92.3699106,52.0270377 94.349221,50.5425549 94.8440486,46.2539145 C92.0400928,45.9240966 89.8957726,47.2435697 89.2359352,51.5322101" id="Fill-59" fill="#FEFEFE"></path>
                    <path d="M87.0916554,56.9753742 C90.060621,57.8000197 92.2049412,56.8103644 93.3596062,52.5219258 C90.7204584,51.8620884 88.2463204,52.6867338 87.0916554,56.9753742" id="Fill-61" fill="#FEFEFE"></path>
                    <path d="M83.9577001,49.7178287 C82.4732173,53.0166122 83.4628725,55.8207698 86.2670301,56.6454152 C87.4214934,53.0166122 86.5968479,50.8724937 83.9577001,49.7178287" id="Fill-63" fill="#FEFEFE"></path>
                    <path d="M90.8853875,39.8211354 C93.689545,39.4913176 94.6792002,36.522352 94.0193629,32.7285392 C91.5452248,33.2233668 90.2255501,35.0376675 90.8853875,39.8211354" id="Fill-65" fill="#FEFEFE"></path>
                    <path d="M83.7927711,27.1204258 C83.7927711,31.4090662 85.6070717,34.0480122 88.9060569,34.0480122 C88.9060569,30.2544012 86.1018993,27.1204258 83.7927711,27.1204258" id="Fill-67" fill="#FEFEFE"></path>
                    <path d="M91.2152658,24.6462676 C89.0709456,26.1307504 88.7411278,29.7595534 90.0606008,33.2233466 C92.3699308,31.7388638 93.359586,28.4400804 91.2152658,24.6462676" id="Fill-69" fill="#FEFEFE"></path>
                    <path d="M84.9473957,34.3779713 C85.6072331,38.3365921 87.7515533,40.3159025 90.0606815,39.9860847 C89.4008441,35.8624541 87.9163613,33.8831437 84.9473957,34.3779713" id="Fill-71" fill="#FEFEFE"></path>
                    <path d="M69.2776599,74.1295928 C71.7517979,76.9337504 74.5559555,78.0882137 78.5145763,75.119248 C76.2052464,72.64511 72.5766451,72.1502824 69.2776599,74.1295928" id="Fill-73" fill="#FEFEFE"></path>
                    <path d="M68.7828121,73.9646637 C72.2466054,71.6555355 72.2466054,69.1811958 70.7621225,66.3772399 C67.9581667,67.8617227 66.6384919,70.3358607 68.7828121,73.9646637" id="Fill-75" fill="#FEFEFE"></path>
                    <path d="M85.6071524,44.769472 C84.2876794,48.0684572 85.4421426,50.872413 88.576118,51.3672406 C89.4009652,47.7384376 88.2463002,45.7591272 85.6071524,44.769472" id="Fill-77" fill="#FEFEFE"></path>
                    <path d="M62.8448405,74.954319 C63.669486,78.4181122 66.4736435,80.3974226 70.7620822,79.7377869 C70.2672546,75.9439742 66.6386533,73.799654 62.8448405,74.954319" id="Fill-79" fill="#FEFEFE"></path>
                    <path d="M84.1226494,62.2536093 C87.4216346,63.5730823 89.400945,62.4186191 91.0502359,58.2949885 C87.7514524,57.8001609 85.93695,58.1299787 84.1226494,62.2536093" id="Fill-81" fill="#FEFEFE"></path>
                    <path d="M80.1639882,67.2019257 C83.2979636,69.0162263 85.9371114,68.5213987 88.2462397,64.7277877 C85.1122643,63.2433049 82.1432986,63.7381325 80.1639882,67.2019257" id="Fill-83" fill="#FEFEFE"></path>
                    <path d="M74.8857733,71.160607 C77.8547389,74.1295727 81.3185322,73.4697353 83.95768,70.5007697 C81.3185322,68.3564495 77.6899309,68.1916414 74.8857733,71.160607" id="Fill-85" fill="#FEFEFE"></path>
                    <path d="M112.328166,66.7070981 C110.183846,65.387625 107.37989,64.5627779 104.410924,64.5627779 C102.101594,64.5627779 98.4727911,66.0472607 96.3284709,68.1915809 L88.4112293,75.9440145 C86.9267465,77.4284973 84.7824263,78.4181525 82.9681256,78.4181525 C81.4836428,78.4181525 79.6691405,77.9233249 78.6794852,77.2634875 C76.8651846,78.4181525 73.7312092,78.5831623 72.0817166,77.7583151 C72.4115344,78.7479704 72.5765442,79.9026353 72.5765442,80.8922905 C71.586889,81.3871181 69.2777608,81.5521279 67.2982486,81.2223101 L73.4011897,85.1809309 C76.0403374,86.8304235 79.99916,87.9848868 82.9681256,87.9848868 C87.7513919,87.9848868 90.5555495,85.8405666 95.1740077,81.5521279 L101.111939,76.1090243 C102.596422,74.7893495 103.916096,73.9647041 105.895407,73.9647041 C108.039525,73.9647041 109.689018,74.4595317 111.833338,75.7790047 C111.833338,73.7996943 111.338511,71.6553741 109.19419,70.1708913 C111.008693,69.3462459 112.328166,67.6967533 112.328166,66.7070981" id="Fill-87" fill="#FEFEFE"></path>
                    <path d="M66.4736032,71.3255361 C66.3085934,70.5008907 66.3085934,70.1708711 66.4736032,69.3462257 C64.329283,67.6967331 61.6901352,66.7070779 57.8965241,66.7070779 C53.2780659,66.7070779 49.8142727,67.5317233 45.6906421,70.3358809 L32.1650853,79.4077876 C29.5261392,81.2222899 24.0828339,82.541763 22.1035234,81.2222899 C24.4128534,80.8922704 26.7219816,80.0676249 29.1961197,78.5831421 L17.8150848,68.1915607 C15.6707646,66.2122503 12.0419616,64.5627577 9.73263161,64.5627577 C6.76366599,64.5627577 3.95971014,65.3876049 1.81538995,66.7070779 C1.81538995,67.6967331 3.13486298,69.3462257 4.94936535,70.1708711 C2.80504516,71.6553539 2.31021755,73.7996741 2.31021755,75.7789846 C4.45453774,74.4595115 6.10403033,73.9646839 8.2481488,73.9646839 C10.2274592,73.9646839 11.547134,74.7893293 13.0316168,76.1090041 L18.969548,81.5521078 C23.5880062,85.8407481 26.3921638,87.9848666 31.1754301,87.9848666 C34.1443957,87.9848666 38.1032183,86.9952114 40.7423661,85.1809108 L56.9068689,74.2945017 C59.8758346,72.3151913 63.6694456,71.3255361 66.4736032,71.3255361" id="Fill-89" fill="#FEFEFE"></path>
                    <path d="M33.5245803,110.322873 L33.5629077,110.390249 C33.5148975,110.726925 33.4668874,111.487019 33.4668874,111.84286 L33.4186755,111.891071 C33.2936069,111.900754 33.1108455,111.891071 33.0049407,111.862225 C32.9569305,111.688945 32.8992376,111.448692 32.8607084,111.2272 C32.8124965,110.929052 32.379598,110.726925 31.9658632,110.726925 C31.4270599,110.726925 31.1192299,110.986745 31.1192299,111.419644 C31.1192299,112.006457 31.6773987,112.199103 32.2738949,112.391346 C32.9377668,112.612636 33.6496488,112.853091 33.6496488,113.728772 C33.6496488,114.690993 32.8895549,115.354663 31.7157262,115.354663 C31.3308378,115.354663 30.9749977,115.287489 30.7631881,115.220113 L30.7151779,115.229594 C30.6863314,115.277806 30.6671677,115.354663 30.657485,115.383509 C30.5324164,115.402875 30.2822794,115.393192 30.1763746,115.364346 L30.1380471,115.287489 C30.1380471,114.873553 30.1860573,113.950063 30.2437502,113.603703 C30.3785015,113.58454 30.5612629,113.603703 30.6863314,113.642233 L30.7248606,113.699926 C30.7343416,113.94038 30.7537071,114.2002 30.8017172,114.411808 C30.8690929,114.690993 31.3116741,114.883235 31.8022655,114.883235 C32.4278099,114.883235 32.8124965,114.642781 32.8124965,114.123343 C32.8124965,113.526847 32.2738949,113.334201 31.6965624,113.132276 C31.0038441,112.901302 30.2437502,112.641483 30.2437502,111.679464 C30.2437502,110.900206 30.8884583,110.274863 32.0620853,110.274863 C32.4278099,110.274863 32.7162744,110.361403 32.9184013,110.438461 C32.9472478,110.399932 32.9954597,110.322873 33.0434699,110.274863 C33.1685384,110.255498 33.4089927,110.284546 33.5245803,110.322873" id="Fill-91" fill="#FEFEFE"></path>
                    <path d="M37.9502514,110.380728 L37.9790978,110.448103 C37.9790978,110.57297 37.9405687,110.765414 37.8828757,110.861636 C37.2670141,110.861636 37.1901574,110.890483 37.161311,111.227159 C37.1130991,111.737318 37.0842526,112.439517 37.0842526,113.420902 C37.0842526,113.930657 37.1036181,114.440815 37.1421473,114.825502 C37.2960623,114.796656 37.4788237,114.77729 37.623056,114.77729 C37.719278,114.77729 37.8058174,114.786973 37.863712,114.806338 L37.8925585,114.873714 C37.8925585,115.017946 37.8540293,115.162178 37.7866537,115.268083 C37.2766968,115.268083 36.2376194,115.287449 35.5257373,115.354824 C35.4680444,115.2584 35.4295152,115.133534 35.4295152,114.998782 L35.4680444,114.940888 C35.6219594,114.912243 35.8047208,114.864031 35.9297894,114.816021 C36.1990902,114.719799 36.2569848,114.507989 36.2569848,112.737866 C36.2569848,111.92956 36.2473021,111.429286 36.2376194,110.919329 C36.0163287,110.929012 35.7855571,110.948176 35.6027957,110.977224 C35.5449011,110.890483 35.5063719,110.698039 35.5063719,110.57297 L35.5449011,110.505796 C35.9491548,110.419055 36.7572589,110.361362 37.3729189,110.361362 C37.6809506,110.361362 37.8348656,110.371045 37.9502514,110.380728" id="Fill-93" fill="#FEFEFE"></path>
                    <path d="M46.0511017,110.390209 L46.0799482,110.457584 C46.0799482,110.573172 46.0317363,110.775097 45.9645624,110.861636 C45.3101715,110.861636 45.2333149,110.890685 45.2044684,111.217678 C45.1562565,111.727635 45.1274101,112.430036 45.1274101,113.420902 L45.1274101,115.268083 L45.0890826,115.335459 C44.9543314,115.373988 44.6945116,115.373988 44.5020674,115.325776 C43.2802285,113.738414 42.1834582,112.439517 41.2020736,111.323381 L41.134698,111.323381 C41.134698,112.805242 41.134698,113.776742 41.1443807,114.806338 L41.1732272,114.835185 C41.3368249,114.806338 41.5675965,114.777492 41.7505597,114.777492 C41.8756282,114.777492 41.9718503,114.786973 42.0487069,114.806338 L42.0872361,114.873714 C42.0872361,115.008263 42.0390242,115.162178 41.9813313,115.268083 C41.4618934,115.268083 40.4036522,115.297131 39.7012512,115.354824 C39.6530393,115.268083 39.6147118,115.133534 39.6147118,114.998782 L39.6530393,114.940888 C39.8263197,114.912243 39.9899174,114.883195 40.1341497,114.844867 C40.4324987,114.767809 40.5382018,114.633058 40.5960964,113.449748 C40.6344238,112.708818 40.6441066,111.70827 40.6441066,110.861636 C40.3842868,110.871319 40.0956205,110.919329 39.8551662,110.967541 C39.7877906,110.861636 39.7492614,110.717404 39.7492614,110.553806 L39.7974733,110.496113 C40.1629962,110.409574 40.6055774,110.361362 41.134698,110.361362 C41.3174594,110.361362 41.4618934,110.361362 41.5581155,110.380728 C42.4818071,111.496662 43.6457514,112.920426 44.5311156,114.017398 L44.5982895,114.017398 L44.5982895,112.18938 C44.5982895,111.862185 44.5886068,111.371593 44.5791258,110.871319 C44.319306,110.881002 44.0594862,110.909848 43.8287146,110.948176 C43.7708199,110.861636 43.7228097,110.688558 43.7228097,110.563489 L43.7613389,110.505796 C44.1365445,110.419055 44.8581093,110.361362 45.4546055,110.361362 C45.7721182,110.361362 45.9357159,110.371045 46.0511017,110.390209" id="Fill-95" fill="#FEFEFE"></path>
                    <path d="M49.3895843,110.861657 C49.3222087,110.871339 49.2933623,110.900186 49.2836795,110.957879 C49.2068229,111.62175 49.1779765,112.362681 49.1779765,113.440086 C49.1779765,113.94036 49.1874575,114.363777 49.2259866,114.7293 C49.5049702,114.796676 49.8033191,114.825522 50.168842,114.825522 C51.2176022,114.825522 52.0642355,114.219545 52.0642355,112.862753 C52.0642355,111.650597 51.3426707,110.842493 49.8898585,110.842493 C49.7262608,110.842493 49.5146529,110.851974 49.3895843,110.861657 M53.0070908,112.660828 C53.0070908,114.411787 51.8429449,115.24894 50.168842,115.297152 C49.0912354,115.325796 48.4370463,115.345162 47.6192594,115.354643 C47.5615665,115.258421 47.5230373,115.133554 47.5230373,114.998803 L47.5615665,114.940908 C47.7154815,114.912263 47.8984447,114.864051 48.0233115,114.816041 C48.292814,114.719617 48.3505069,114.508009 48.3505069,112.737886 C48.3505069,111.92958 48.3408242,111.429306 48.3311414,110.919349 C48.1100526,110.919349 47.8790792,110.938715 47.6963178,110.977244 C47.6384231,110.890503 47.6000957,110.698059 47.6000957,110.57299 L47.6384231,110.505816 C48.1292163,110.419075 48.9950133,110.361382 50.1496783,110.361382 C51.9391669,110.361382 53.0070908,111.09263 53.0070908,112.660828" id="Fill-97" fill="#FEFEFE"></path>
                    <path d="M58.2217225,110.322873 L58.26005,110.390249 C58.2120398,110.726925 58.1640296,111.487019 58.1640296,111.84286 L58.1158177,111.891071 C57.9907492,111.900754 57.8079877,111.891071 57.7020829,111.862225 C57.6540727,111.688945 57.5963798,111.448692 57.5578507,111.2272 C57.5096388,110.929052 57.0767403,110.726925 56.6630055,110.726925 C56.1242022,110.726925 55.8163722,110.986745 55.8163722,111.419644 C55.8163722,112.006457 56.3745409,112.199103 56.9710372,112.391346 C57.634909,112.612636 58.346791,112.853091 58.346791,113.728772 C58.346791,114.690993 57.5866971,115.354663 56.4128684,115.354663 C56.0279801,115.354663 55.6721399,115.287489 55.4603303,115.220113 L55.4123201,115.229594 C55.3834737,115.277806 55.36431,115.354663 55.3546272,115.383509 C55.2295587,115.402875 54.9794216,115.393192 54.8735168,115.364346 L54.8351894,115.287489 C54.8351894,114.873553 54.8831995,113.950063 54.9408924,113.603703 C55.0756437,113.58454 55.2584051,113.603703 55.3834737,113.642233 L55.4220029,113.699926 C55.4314839,113.94038 55.4508493,114.2002 55.4988595,114.411808 C55.5662351,114.690993 56.0088163,114.883235 56.4994078,114.883235 C57.1249522,114.883235 57.5096388,114.642781 57.5096388,114.123343 C57.5096388,113.526847 56.9710372,113.334201 56.3937047,113.132276 C55.7009864,112.901302 54.9408924,112.641483 54.9408924,111.679464 C54.9408924,110.900206 55.5856006,110.274863 56.7592276,110.274863 C57.1249522,110.274863 57.4134167,110.361403 57.6155436,110.438461 C57.64439,110.399932 57.6924002,110.322873 57.7406121,110.274863 C57.8656806,110.255498 58.106135,110.284546 58.2217225,110.322873" id="Fill-99" fill="#FEFEFE"></path>
                    <path d="M65.7548827,110.736648 C65.7548827,110.842553 65.7066708,111.025315 65.6489779,111.102171 C65.5721213,111.111854 65.4758992,111.121537 65.3796771,111.150383 C65.1103763,111.236923 65.0910109,111.823938 65.0910109,112.949353 C65.0910109,113.63259 65.1103763,114.325309 65.1583865,114.835265 C65.2931378,114.806419 65.4950629,114.787053 65.6586607,114.787053 C65.7548827,114.787053 65.8511048,114.796736 65.9184805,114.8159 L65.9570096,114.892958 C65.9570096,115.027508 65.9184805,115.181423 65.8511048,115.268164 C65.3026188,115.268164 64.2155312,115.287328 63.4554372,115.354703 C63.3880616,115.268164 63.3592151,115.143095 63.3592151,115.027508 L63.3977443,114.960334 C63.5710248,114.921603 63.7249397,114.883276 63.8498066,114.835265 C64.1578382,114.719678 64.2637431,114.498387 64.2637431,113.112951 L64.2637431,112.429915 C64.2637431,112.083556 64.2540603,111.631292 64.2346949,111.313779 C63.8498066,111.381155 63.5036491,111.48706 63.1958192,111.650657 C63.0993953,111.525589 63.0322214,111.352308 63.0225387,111.188912 L63.0610679,111.121537 C63.8498066,110.842553 64.6964398,110.688638 65.6971898,110.65959 L65.7548827,110.736648 Z" id="Fill-101" fill="#FEFEFE"></path>
                    <g id="Group-105" transform="translate(67.583022, 110.582633)">
                        <mask id="mask-2" fill="white">
                            <use xlink:href="#path-1"></use>
                        </mask>
                        <g id="Clip-104"></g>
                        <path d="M3.22293544,2.89594174 C3.26146462,2.67465112 3.28062834,2.45336051 3.28062834,2.22258889 C3.28062834,1.10645308 2.79003693,0.48111041 2.029943,0.48111041 C1.43344678,0.48111041 0.990865549,0.865998738 0.990865549,1.88571074 C0.990865549,2.81888338 1.40460033,3.30967652 2.14532881,3.30967652 C2.51105341,3.30967652 2.95363464,3.17512698 3.22293544,2.89594174 M4.28137834,2.11668408 C4.28137834,4.44497605 2.81888338,5.89778828 0.644506398,6.41742787 C0.567649767,6.34016779 0.500274137,6.20561826 0.480908687,6.09991517 L0.529120589,6.00369309 C1.82801783,5.54174641 2.60727549,4.78165248 3.16524253,3.4635915 L3.10754963,3.42506233 L2.62643922,3.7328923 C2.38598488,3.89649001 2.10700136,3.97354837 1.83749884,3.97354837 C0.663871849,3.97354837 -1.14666501e-14,3.32904197 -1.14666501e-14,2.22258889 C-1.14666501e-14,0.856316013 1.10645308,0 2.28008007,0 C3.69436312,0 4.28137834,0.904326192 4.28137834,2.11668408" id="Fill-103" fill="#FEFEFE" mask="url(#mask-2)"></path>
                    </g>
                    <g id="Group-108" transform="translate(73.442160, 110.698018)">
                        <mask id="mask-4" fill="white">
                            <use xlink:href="#path-3"></use>
                        </mask>
                        <g id="Clip-107"></g>
                        <path d="M0.904326192,2.46304323 C1.09677036,2.35734015 1.45281223,2.26111807 1.85686429,2.26111807 C2.91510547,2.26111807 3.62718922,2.84793156 3.62718922,3.79078693 C3.62718922,5.44572605 1.96276909,6.18645453 0.096222082,6.30204206 C0.0385291775,6.21530098 0,6.061386 0,5.94600019 L0.0576929045,5.86894183 C1.53935159,5.8015662 2.62664094,5.13789608 2.62664094,3.98323109 C2.62664094,3.25198361 2.12616508,2.92478819 1.46229323,2.92478819 C1.07760663,2.92478819 0.856316013,2.99216382 0.683035576,3.0883859 C0.577332492,3.0883859 0.480908687,3.06922218 0.404052055,3.02101027 L0.375205603,2.96351909 C0.41373478,2.23206989 0.519437864,1.09697208 0.635025396,0.163597712 L0.711882028,0.105904807 C1.27953179,0.0387309009 2.03962573,1.14666501e-14 2.75150775,1.14666501e-14 C3.00184655,1.14666501e-14 3.25178189,0.00968272523 3.4153796,0.0387309009 L3.47327423,0.125270258 C3.44422605,0.375205603 3.3576867,0.683035576 3.28062834,0.856316013 C3.07870318,0.837152286 2.74182503,0.827671284 2.48220696,0.827671284 C1.98193282,0.827671284 1.40460033,0.865998738 1.04855845,0.904527915 C0.971701822,1.4336485 0.933172644,1.89559519 0.904326192,2.46304323" id="Fill-106" fill="#FEFEFE" mask="url(#mask-4)"></path>
                    </g>
                    <path d="M79.9747313,112.920506 C79.9747313,114.190557 80.4653227,114.892958 81.3698506,114.892958 C82.2164839,114.892958 82.6879116,114.277097 82.6879116,113.074421 C82.6879116,111.804572 82.2068012,111.102171 81.2927923,111.102171 C80.4558417,111.102171 79.9747313,111.718033 79.9747313,112.920506 M83.6884599,112.824486 C83.6884599,114.402165 82.6590651,115.412396 81.0908671,115.412396 C79.7726044,115.412396 78.974183,114.527435 78.974183,113.170644 C78.974183,111.583282 80.0035777,110.582734 81.5717758,110.582734 C82.8995195,110.582734 83.6884599,111.467694 83.6884599,112.824486" id="Fill-109" fill="#FEFEFE"></path>
                    <path d="M7.27091976,100.106933 L7.19809759,100.17451 C6.99455864,100.201541 6.68914935,100.17451 6.48561039,100.120448 C6.44203813,99.8368249 6.35469188,99.418047 6.28207144,99.1207067 C6.13662884,98.593805 5.33679539,98.3370111 4.52243785,98.3370111 C3.14103572,98.3370111 1.8613022,99.2288304 1.8613022,101.133907 C1.8613022,103.038983 3.01011721,103.984864 4.75522671,103.984864 C5.81669546,103.984864 6.34016779,103.349839 6.61652891,102.228256 L6.71819752,102.174194 C6.99455864,102.187912 7.28544384,102.309349 7.43088645,102.498364 C7.37258837,103.093045 7.11095307,104.079271 6.87816421,104.457704 C6.15115293,104.700982 5.26417495,104.809106 4.33342299,104.809106 C1.67228734,104.809106 -7.16665633e-14,103.714555 -7.16665633e-14,101.498824 C-7.16665633e-14,99.1207067 1.89035038,97.5398 4.62430819,97.5398 C5.48223799,97.5398 5.94761397,97.6208929 6.41298996,97.7830785 C6.45656222,97.7155012 6.52918266,97.6208929 6.60200482,97.5398 C6.80554377,97.5127691 7.19809759,97.5398 7.43088645,97.6073774 L7.4889828,97.7019857 C7.37258837,98.3099801 7.27091976,99.3910161 7.27091976,100.106933" id="Fill-111" fill="#FEFEFE"></path>
                    <path d="M13.4504955,101.458096 L14.04679,101.458096 C13.6976067,100.566277 13.2905288,99.5935666 12.9705954,98.8774484 L12.8689268,98.8774484 C12.4906954,99.6746594 12.0836175,100.593308 11.705386,101.485127 C12.214536,101.471612 12.7234842,101.458096 13.4504955,101.458096 L13.4504955,101.458096 Z M17.8712648,103.971369 C17.8712648,104.227961 17.7839185,104.471239 17.6822499,104.646941 C16.8386425,104.646941 15.151831,104.687285 13.9884919,104.768378 C13.8868233,104.592879 13.8285252,104.376631 13.8285252,104.14707 L13.8720975,104.065977 L14.4248197,103.944338 C14.6138346,103.90359 14.7447531,103.782152 14.7447531,103.57942 C14.7447531,103.349859 14.5847864,102.877019 14.3667234,102.282338 C14.003016,102.255307 13.581414,102.241994 13.1450862,102.241994 C12.4180749,102.241994 11.9381749,102.255307 11.3709285,102.309369 C11.1528655,102.849988 10.9638506,103.37689 10.803884,103.836214 L10.8474562,103.90359 C11.0802451,103.863245 11.3128322,103.836214 11.5163712,103.836214 C11.6763378,103.836214 11.8217804,103.849528 11.8946026,103.876559 L11.9381749,103.971369 C11.9381749,104.214445 11.8653527,104.471239 11.7636841,104.646941 C10.9638506,104.646941 9.66959304,104.687285 8.56455202,104.768378 C8.46268168,104.606394 8.40458533,104.376631 8.40458533,104.14707 L8.44815759,104.065977 C9.52415043,103.849528 9.7131653,103.674028 10.5275228,102.039262 C11.1819137,100.701432 11.952699,98.9855721 12.4616472,97.8101296 C12.854201,97.5803666 13.6249863,97.48596 14.1339345,97.5803666 L14.2358049,97.6614594 C14.8611475,99.3099434 15.8354718,101.782468 16.766022,103.90359 C16.9550369,103.863245 17.2168739,103.836214 17.449461,103.836214 C17.6094277,103.836214 17.7403462,103.863245 17.8129667,103.890276 L17.8712648,103.971369 Z" id="Fill-113" fill="#FEFEFE"></path>
                    <path d="M21.9566889,98.472186 C21.8402945,98.4857014 21.8112463,98.5262478 21.7967223,98.6071389 C21.6950536,99.3099434 21.6658037,100.080124 21.6512797,101.09338 C21.8695444,101.133927 22.1166556,101.147442 22.3201946,101.147442 C23.4690096,101.147442 24.2397949,100.579994 24.2397949,99.6476285 C24.2397949,98.8100727 23.8179911,98.445155 22.5965557,98.445155 C22.3930167,98.445155 22.1602279,98.445155 21.9566889,98.472186 M26.0139525,99.4450981 C26.0139525,100.47187 25.2576914,101.201302 24.254319,101.579937 C24.7632672,102.241994 25.3012636,102.836271 25.8685099,103.403921 C26.3629341,103.890276 26.7409638,104.038946 27.1189936,104.011915 L27.2063398,104.093008 C27.2063398,104.336085 27.1627675,104.538817 27.0754213,104.728033 C26.8428342,104.768378 26.4210304,104.795409 26.0430007,104.795409 C25.0541524,104.795409 24.4869061,104.525301 23.9634337,103.809183 C23.5125819,103.214502 23.0764558,102.48507 22.7565224,101.89039 L21.6512797,101.89039 C21.6512797,102.674287 21.6658037,103.390203 21.7241018,103.903791 C21.9857371,103.863245 22.2330501,103.836214 22.4511131,103.836214 C22.5965557,103.836214 22.7129501,103.849729 22.8146187,103.87676 L22.8729168,103.984884 C22.8729168,104.227961 22.8000947,104.471239 22.683902,104.646941 C21.8257704,104.646941 20.1099108,104.687285 18.9320476,104.768378 C18.8301773,104.606394 18.772081,104.376631 18.772081,104.160384 L18.8301773,104.079291 C19.0629662,104.025229 19.3246015,103.971369 19.5281404,103.903791 C19.9354201,103.755121 20.0227663,103.457983 20.0227663,101.039318 C20.0227663,99.9582826 20.0080405,99.2288506 19.9935164,98.5532788 C19.6881071,98.5667943 19.3100774,98.5938252 19.0482404,98.6341699 C18.9465717,98.4857014 18.8737496,98.1613301 18.8737496,97.9587998 L18.9465717,97.8641915 C19.8773237,97.7425523 21.2732499,97.6614594 23.120028,97.6614594 C25.1705468,97.6614594 26.0139525,98.2829694 26.0139525,99.4450981" id="Fill-115" fill="#FEFEFE"></path>
                    <path d="M32.5134012,101.458096 L33.1096957,101.458096 C32.7605124,100.566277 32.3534345,99.5935666 32.0335011,98.8774484 L31.9318325,98.8774484 C31.553601,99.6746594 31.1465231,100.593308 30.7682917,101.485127 C31.2774416,101.471612 31.7863899,101.458096 32.5134012,101.458096 L32.5134012,101.458096 Z M36.9341704,103.971369 C36.9341704,104.227961 36.8468241,104.471239 36.7451555,104.646941 C35.9015481,104.646941 34.2147367,104.687285 33.0513976,104.768378 C32.949729,104.592879 32.8914309,104.376631 32.8914309,104.14707 L32.9350032,104.065977 L33.4877254,103.944338 C33.6767403,103.90359 33.8076588,103.782152 33.8076588,103.57942 C33.8076588,103.349859 33.6476921,102.877019 33.429629,102.282338 C33.0659217,102.255307 32.6443197,102.241994 32.2079919,102.241994 C31.4809806,102.241994 31.0010805,102.255307 30.4338342,102.309369 C30.2157712,102.849988 30.0267563,103.37689 29.8667896,103.836214 L29.9103619,103.90359 C30.1431507,103.863245 30.3757378,103.836214 30.5792768,103.836214 C30.7392435,103.836214 30.8846861,103.849528 30.9575082,103.876559 L31.0010805,103.971369 C31.0010805,104.214445 30.9282584,104.471239 30.8265897,104.646941 C30.0267563,104.646941 28.7324987,104.687285 27.6272559,104.768378 C27.5255873,104.606394 27.467491,104.376631 27.467491,104.14707 L27.5110632,104.065977 C28.5870561,103.849528 28.7760709,103.674028 29.5904285,102.039262 C30.2448193,100.701432 31.0156046,98.9855721 31.5245528,97.8101296 C31.9171067,97.5803666 32.6878919,97.48596 33.1968402,97.5803666 L33.2987105,97.6614594 C33.9240532,99.3099434 34.8983774,101.782468 35.8289277,103.90359 C36.0179425,103.863245 36.2797796,103.836214 36.5123667,103.836214 C36.6723334,103.836214 36.8032519,103.863245 36.8758723,103.890276 L36.9341704,103.971369 Z" id="Fill-117" fill="#FEFEFE"></path>
                    <path d="M47.839723,97.7019857 L47.898021,97.796594 C47.898021,97.9991243 47.8251989,98.3370111 47.7233285,98.4856813 C46.7346819,98.4856813 46.6328116,98.5262277 46.5890376,99.0260984 C46.5164172,99.7422166 46.487369,100.688098 46.487369,102.01221 L46.487369,104.64692 L46.4292727,104.755044 C46.1383875,104.82242 45.6730115,104.82242 45.2659336,104.741327 C43.4189537,102.593174 41.8047627,100.850082 40.321692,99.3369542 L40.2198217,99.3369542 C40.2198217,101.24203 40.2198217,102.498364 40.2343457,103.87674 L40.277918,103.917287 C40.539755,103.87674 40.8451643,103.836194 41.0922755,103.836194 C41.2960162,103.836194 41.4559829,103.849709 41.5721756,103.890256 L41.6159496,103.984864 C41.6159496,104.214425 41.5431274,104.484735 41.426733,104.64692 C40.6416254,104.64692 39.0564826,104.687265 37.9950138,104.768358 C37.8931435,104.619889 37.8350471,104.390126 37.8350471,104.174081 L37.8931435,104.079271 C38.1402547,104.038926 38.3730435,103.998379 38.5911066,103.944318 C39.0129103,103.836194 39.1581512,103.633462 39.2600215,102.052757 C39.3181179,100.958205 39.3328437,99.6070619 39.3328437,98.4721658 C38.9546122,98.4856813 38.5330102,98.5397431 38.1985528,98.6071188 C38.0821583,98.4316194 38.024062,98.2018564 38.024062,97.9317487 L38.1112065,97.8371404 C38.6929769,97.7290166 39.4345123,97.6614393 40.321692,97.6614393 C40.6416254,97.6614393 40.8596884,97.6749547 41.005131,97.6884702 C42.3865331,99.188284 44.0880704,101.052814 45.4404243,102.552628 L45.542093,102.552628 L45.542093,100.309866 C45.542093,99.8097939 45.5275689,99.1612531 45.5130448,98.4991967 C45.1495391,98.5127122 44.7567836,98.5532586 44.4080038,98.6071188 C44.3206575,98.4586503 44.2333113,98.16131 44.2333113,97.9587796 L44.3061334,97.8641713 C44.873178,97.7560476 46.0074689,97.6614393 46.9234951,97.6614393 C47.3598229,97.6614393 47.6652322,97.6749547 47.839723,97.7019857" id="Fill-119" fill="#FEFEFE"></path>
                    <path d="M54.8625027,97.634489 L54.9353249,97.7290973 C54.8625027,98.2695144 54.7753582,99.3638641 54.7753582,99.8907657 L54.702536,99.9583431 C54.484473,99.9718585 54.1645396,99.9583431 53.9755247,99.9042812 C53.9027026,99.6612044 53.815558,99.3368331 53.75726,99.026179 C53.6701154,98.593684 53.1028691,98.2965454 52.3758578,98.2965454 C51.5905485,98.2965454 51.1396966,98.593684 51.1396966,99.1613338 C51.1396966,99.9313121 51.9540541,100.161075 52.8557579,100.417667 C53.9027026,100.728523 55.0515176,101.079724 55.0515176,102.390523 C55.0515176,103.809244 53.8300821,104.768439 51.9250059,104.768439 C51.2851392,104.768439 50.6890464,104.67383 50.3545889,104.565706 L50.2817668,104.579424 C50.2236704,104.660315 50.1946223,104.768439 50.1800982,104.808985 C49.9765592,104.836016 49.5838037,104.8225 49.3802647,104.781954 L49.3221684,104.67383 C49.3221684,103.930681 49.3947888,102.741723 49.5111832,102.147244 C49.7437704,102.120213 50.0491797,102.147244 50.2672427,102.214822 L50.3253391,102.30943 C50.3400649,102.647317 50.369113,103.012033 50.4417335,103.309373 C50.5290797,103.687604 51.2125187,103.984743 51.9687799,103.984743 C52.8848061,103.984743 53.4518507,103.660573 53.4518507,102.998517 C53.4518507,102.214822 52.666743,101.971543 51.7940874,101.714749 C50.7035705,101.404297 49.4821351,101.039379 49.4821351,99.5801116 C49.4821351,98.4452155 50.5290797,97.5398807 52.4194301,97.5398807 C53.0157246,97.5398807 53.5101488,97.6750354 53.8446062,97.7831592 C53.8881785,97.7155818 53.9610007,97.6209735 54.0336211,97.5398807 C54.2516841,97.5128498 54.6734879,97.5669117 54.8625027,97.634489" id="Fill-121" fill="#FEFEFE"></path>
                    <path d="M61.0568043,101.458096 L61.6530988,101.458096 C61.3039155,100.566277 60.8968376,99.5935666 60.5769042,98.8774484 L60.4752356,98.8774484 C60.0970041,99.6746594 59.6899262,100.593308 59.3116948,101.485127 C59.8208448,101.471612 60.329793,101.458096 61.0568043,101.458096 L61.0568043,101.458096 Z M65.4775735,103.971369 C65.4775735,104.227961 65.3902273,104.471239 65.2885587,104.646941 C64.4449512,104.646941 62.7581398,104.687285 61.5948007,104.768378 C61.4931321,104.592879 61.434834,104.376631 61.434834,104.14707 L61.4784063,104.065977 L62.0311285,103.944338 C62.2201434,103.90359 62.3510619,103.782152 62.3510619,103.57942 C62.3510619,103.349859 62.1910952,102.877019 61.9730322,102.282338 C61.6093248,102.255307 61.1877228,102.241994 60.751395,102.241994 C60.0243837,102.241994 59.5444836,102.255307 58.9772373,102.309369 C58.7591743,102.849988 58.5701594,103.37689 58.4101927,103.836214 L58.453765,103.90359 C58.6865538,103.863245 58.919141,103.836214 59.1226799,103.836214 C59.2826466,103.836214 59.4280892,103.849528 59.5009114,103.876559 L59.5444836,103.971369 C59.5444836,104.214445 59.4716615,104.471239 59.3699929,104.646941 C58.5701594,104.646941 57.2759018,104.687285 56.1708608,104.768378 C56.0689905,104.606394 56.0108941,104.376631 56.0108941,104.14707 L56.0544664,104.065977 C57.1304592,103.849528 57.3194741,103.674028 58.1338316,102.039262 C58.7882225,100.701432 59.5590077,98.9855721 60.067956,97.8101296 C60.4605098,97.5803666 61.2312951,97.48596 61.7402433,97.5803666 L61.8421136,97.6614594 C62.4674563,99.3099434 63.4417805,101.782468 64.3723308,103.90359 C64.5613457,103.863245 64.8231827,103.836214 65.0557698,103.836214 C65.2157365,103.836214 65.346655,103.863245 65.4192755,103.890276 L65.4775735,103.971369 Z" id="Fill-123" fill="#FEFEFE"></path>
                    <path d="M77.0518191,97.6074581 L77.1099155,97.7020664 C76.9935211,98.3100608 76.9354247,99.2692558 76.9354247,99.9718585 L76.8628043,100.02592 C76.6300154,100.066467 76.3391302,100.039436 76.1501153,99.985374 L75.9175282,99.2016784 C75.7430374,98.6342304 75.0886466,98.3370918 74.0269761,98.3370918 C72.6020017,98.3370918 71.4822349,99.2287094 71.4822349,101.133786 C71.4822349,103.052579 72.6600981,104.011774 74.4487798,104.011774 C75.3502819,104.011774 75.6558929,103.782213 75.6847394,103.174218 C75.7139893,102.78227 75.7139893,102.417554 75.7139893,101.98526 C75.2776615,101.98526 74.7977614,102.025605 74.4197317,102.093182 C74.3178613,101.917481 74.259765,101.687718 74.259765,101.444641 L74.3033372,101.377266 C74.943204,101.255425 75.9756246,101.160817 76.978997,101.160817 C77.3427043,101.160817 77.5317192,101.174534 77.6481136,101.187847 L77.6916859,101.282456 C77.6916859,101.525734 77.6188637,101.782528 77.502671,101.958229 C77.3134544,101.944512 77.1972617,101.944512 77.1827376,102.066151 C77.1389637,102.579537 77.0953914,103.025548 77.022771,103.525419 L77.2553581,103.43081 L77.3572284,103.43081 C77.502671,103.606512 77.6188637,103.876619 77.6188637,104.17396 L77.5462433,104.309114 C76.4410005,104.633486 75.1905169,104.808985 74.0269761,104.808985 C70.9878107,104.808985 69.6209327,103.565965 69.6209327,101.498703 C69.6209327,99.1205856 71.4677108,97.5398807 74.1288465,97.5398807 C75.0305502,97.5398807 75.5247727,97.6209735 76.0339226,97.7831592 C76.0774949,97.7155818 76.1501153,97.6209735 76.2229375,97.5398807 C76.4264765,97.5128498 76.8045062,97.5398807 77.0518191,97.6074581" id="Fill-125" fill="#FEFEFE"></path>
                    <path d="M82.5187261,98.472186 C82.4023317,98.4857014 82.3732835,98.5262478 82.3587595,98.6071389 C82.2570908,99.3099434 82.2278409,100.080124 82.2133169,101.09338 C82.4315816,101.133927 82.6786928,101.147442 82.8822318,101.147442 C84.0310468,101.147442 84.8018321,100.579994 84.8018321,99.6476285 C84.8018321,98.8100727 84.3800283,98.445155 83.1585929,98.445155 C82.9550539,98.445155 82.7222651,98.445155 82.5187261,98.472186 M86.5759897,99.4450981 C86.5759897,100.47187 85.8197286,101.201302 84.8163562,101.579937 C85.3253044,102.241994 85.8635025,102.836271 86.4305471,103.403921 C86.9249713,103.890276 87.303001,104.038946 87.6810308,104.011915 L87.768377,104.093008 C87.768377,104.336085 87.7248047,104.538817 87.6374585,104.728033 C87.4048714,104.768378 86.9830676,104.795409 86.6050379,104.795409 C85.6161896,104.795409 85.0489433,104.525301 84.5254709,103.809183 C84.0746191,103.214502 83.638493,102.48507 83.3185596,101.89039 L82.2133169,101.89039 C82.2133169,102.674287 82.2278409,103.390203 82.286139,103.903791 C82.5477743,103.863245 82.7950873,103.836214 83.0131503,103.836214 C83.1585929,103.836214 83.2749873,103.849729 83.3766559,103.87676 L83.434954,103.984884 C83.434954,104.227961 83.3621319,104.471239 83.2459392,104.646941 C82.3878076,104.646941 80.671948,104.687285 79.4940848,104.768378 C79.3922145,104.606394 79.3341182,104.376631 79.3341182,104.160384 L79.3922145,104.079291 C79.6250034,104.025229 79.8866387,103.971369 80.0901776,103.903791 C80.4974573,103.755121 80.5848035,103.457983 80.5848035,101.039318 C80.5848035,99.9582826 80.5700777,99.2288506 80.5555536,98.5532788 C80.2501443,98.5667943 79.8721146,98.5938252 79.6102776,98.6341699 C79.5086089,98.4857014 79.4357868,98.1613301 79.4357868,97.9587998 L79.5086089,97.8641915 C80.4393609,97.7425523 81.8352871,97.6614594 83.6820652,97.6614594 C85.732584,97.6614594 86.5759897,98.2829694 86.5759897,99.4450981" id="Fill-127" fill="#FEFEFE"></path>
                    <path d="M90.3851537,101.039339 C90.3851537,102.95793 91.2578093,103.99842 92.8427504,103.99842 C94.1224839,103.99842 95.03851,103.309333 95.03851,101.309446 C95.03851,99.5530403 94.0496617,98.3773961 92.4647206,98.3773961 C91.1414149,98.3773961 90.3851537,99.1342625 90.3851537,101.039339 M96.8852882,100.958246 C96.8852882,103.403739 95.285823,104.809146 92.2319318,104.809146 C90.225187,104.809146 88.5093274,103.619987 88.5093274,101.390539 C88.5093274,99.0126232 90.4724999,97.5398404 93.0608134,97.5398404 C95.4457897,97.5398404 96.8852882,99.1883244 96.8852882,100.958246" id="Fill-129" fill="#FEFEFE"></path>
                    <path d="M105.144108,97.6885509 L105.231253,97.7964729 C105.202406,98.3774365 105.11506,99.0935547 104.984141,99.5395652 L104.896997,99.6071426 C104.63516,99.6071426 104.329751,99.5530807 104.184308,99.4855033 C104.184308,99.2422249 104.15526,98.9180553 104.097163,98.7018078 L104.009817,98.6071995 C103.646312,98.5263084 103.020969,98.4855602 102.279232,98.4855602 C102.061169,98.4855602 101.843106,98.4855602 101.683139,98.4992774 C101.566745,98.5125912 101.508648,98.566653 101.494124,98.6612613 C101.421302,99.2557403 101.37773,99.9177967 101.363206,100.74224 C102.323006,100.606884 103.224508,100.539508 104.068115,100.539508 L104.198832,100.64743 C104.198832,100.931255 104.068115,101.39058 103.908149,101.593312 C103.064541,101.485188 102.148515,101.471672 101.348682,101.498703 L101.348682,101.958229 C101.348682,102.633599 101.37773,103.322687 101.436028,103.822557 C102.468448,103.795526 103.282806,103.728151 104.169784,103.606512 L104.271654,103.525419 C104.388049,103.160501 104.606112,102.66063 104.780602,102.403836 C105.01319,102.403836 105.275027,102.457898 105.434993,102.525476 L105.49309,102.647317 C105.391219,103.160501 105.231253,104.079351 105.18768,104.552393 L105.04244,104.646799 C104.896997,104.646799 104.15526,104.633486 103.718932,104.633486 C101.886678,104.633486 99.4873794,104.700861 98.6439736,104.768439 C98.5421033,104.606455 98.484007,104.376692 98.484007,104.160444 L98.5421033,104.079351 C98.7746904,104.025289 99.0365275,103.971429 99.2400664,103.90365 C99.647346,103.755182 99.7344906,103.457841 99.7344906,101.039379 C99.7344906,99.9583431 99.7199665,99.2287094 99.7054424,98.5533393 C99.4000331,98.566653 99.0220034,98.593684 98.7601663,98.6342304 C98.6584977,98.4855602 98.5856756,98.1613907 98.5856756,97.9586586 L98.6584977,97.864252 C99.8363609,97.7290973 101.334157,97.66152 103.660836,97.66152 C104.242606,97.66152 104.882473,97.6750354 105.144108,97.6885509" id="Fill-131" fill="#FEFEFE"></path>
                    <g id="Group-135" transform="translate(107.062841, 97.661540)">
                        <mask id="mask-6" fill="white">
                            <use xlink:href="#path-5"></use>
                        </mask>
                        <g id="Clip-134"></g>
                        <path d="M7.29996793,1.98616901 C7.29996793,3.63445126 5.68577695,4.5262706 4.12988403,4.5262706 C3.80995066,4.5262706 3.54811363,4.49923966 3.33005059,4.45869325 C3.21365616,4.28299213 3.15555981,4.02619819 3.18460798,3.81015238 L3.25722842,3.74257503 C3.35909876,3.7560905 3.51906545,3.76960597 3.63545988,3.76960597 C4.75502498,3.76960597 5.48223799,3.17512698 5.48223799,2.20221482 C5.48223799,1.35114362 5.06043427,0.797009321 3.85352292,0.797009321 C3.62093579,0.797009321 3.35909876,0.797009321 3.1700839,0.824040262 C3.05368947,0.837757456 3.01011721,0.878102144 2.99559312,0.972710439 C2.90824687,1.86452978 2.8646746,2.87798835 2.8646746,4.2965076 C2.8646746,5.01262582 2.89372278,5.72874404 2.95202086,6.2421302 C3.27195423,6.18806832 3.63545988,6.16103738 3.95519153,6.16103738 C4.1734563,6.16103738 4.36247116,6.17455285 4.49338968,6.21509926 L4.55148603,6.32322302 C4.55148603,6.56629977 4.4643415,6.80977997 4.36247116,6.98527936 C3.41739684,6.98527936 1.48327247,7.02582577 0.15996669,7.1069186 C0.0580963514,6.94493467 0,6.71517167 0,6.49892414 L0.0580963514,6.41783132 C0.29068348,6.36376944 0.552520509,6.30990928 0.756059462,6.2421302 C1.16333909,6.09346002 1.25048362,5.79632139 1.25048362,3.37785904 C1.25048362,2.29682311 1.23595953,1.56718942 1.22143544,0.891819339 C0.916026152,0.905133086 0.537996421,0.932164027 0.276159393,0.972710439 C0.174490778,0.824040262 0.101668615,0.49987069 0.101668615,0.297138631 L0.174490778,0.20273206 C1.09051693,0.0808911004 2.44287089,-1.14666501e-14 4.24627846,-1.14666501e-14 C6.41298996,-1.14666501e-14 7.29996793,0.810726515 7.29996793,1.98616901" id="Fill-133" fill="#FEFEFE" mask="url(#mask-6)"></path>
                    </g>
                </g>
            </g>
        </g>
    </g>
</svg>