<?xml version="1.0" encoding="UTF-8"?>
<svg width="28px" height="29px" viewBox="0 0 28 29" version="1.1" xmlns="http://www.w3.org/2000/svg" xmlns:xlink="http://www.w3.org/1999/xlink">
    <title>train</title>
    <g id="Onepager" stroke="none" stroke-width="1" fill="none" fill-rule="evenodd">
        <g id="Desktop-the-bridge-v2" transform="translate(-459.000000, -6616.000000)" stroke="#6E817D" stroke-width="0.672">
            <g id="map" transform="translate(0.000000, 5163.000000)">
                <g id="Group-38" transform="translate(225.000000, 465.199385)">
                    <g id="afstanden" transform="translate(47.000000, 986.800615)">
                        <g id="train" transform="translate(188.000000, 2.000000)">
                            <path d="M18.4380519,24 C20.4053351,24 22,22.3722397 22,20.364128 L22,9.33213159 C22,6.99954935 21.5249559,4 12.500883,4 C3.47504415,4 3,6.99954935 3,9.33213159 L3,20.364128 C3,22.3722397 4.59466493,24 6.5637141,24 L18.4380519,24 Z M5.37522075,19.7566471 C5.37522075,19.0878774 5.90677572,18.5452907 6.5637141,18.5452907 C7.21888651,18.5452907 7.75044149,19.0878774 7.75044149,19.7566471 C7.75044149,20.4272195 7.21888651,20.9698062 6.5637141,20.9698062 C5.90677572,20.9698062 5.37522075,20.4272195 5.37522075,19.7566471 Z M17.8446882,20.9698062 C17.1877498,20.9698062 16.6561948,20.4272195 16.6561948,19.7566471 C16.6561948,19.0878774 17.1877498,18.5452907 17.8446882,18.5452907 C18.4998606,18.5452907 19.0314156,19.0878774 19.0314156,19.7566471 C19.0314156,20.4272195 18.4998606,20.9698062 17.8446882,20.9698062 Z" id="Stroke-2"></path>
                            <path d="M9.49956624,24 L6,28 M16.5004338,24 L20,28" id="Stroke-4" stroke-linecap="round"></path>
                            <path d="M5.31670385,15.5336186 L20.6815386,15.5336186 L20.6815386,9.55969663 L5.31670385,9.55969663 L5.31670385,15.5336186 Z M9.45406611,7.16977247 L16.5459339,7.16977247 L9.45406611,7.16977247 Z M7.09011019,26.2873888 L18.9098898,26.2873888 L7.09011019,26.2873888 Z M0,26.2873888 L0,5.97392195 C0,2.6742274 2.64517001,0 5.90901102,0 L20.090989,0 C23.35483,0 26,2.6742274 26,5.97392195 L26,26.2873888 L0,26.2873888 Z" id="Stroke-5" stroke-linecap="round" stroke-linejoin="round"></path>
                        </g>
                    </g>
                </g>
            </g>
        </g>
    </g>
</svg>