<?xml version="1.0" encoding="UTF-8"?>
<svg width="59px" height="95px" viewBox="0 0 59 95" version="1.1" xmlns="http://www.w3.org/2000/svg" xmlns:xlink="http://www.w3.org/1999/xlink">
    <title>logo-small</title>
    <g id="Onepager" stroke="none" stroke-width="1" fill="none" fill-rule="evenodd">
        <g id="Desktop-the-bridge-v2" transform="translate(-771.000000, -18.000000)" fill="#6E817D">
            <g id="MAIN-NAV" transform="translate(170.000000, 18.000000)">
                <g id="Group" transform="translate(601.000000, 0.000000)">
                    <path d="M7.56654905,82.1469361 L6.57097586,82.1469361 L6.57097586,87.6683133 L7.56654905,87.6683133 L7.56654905,85.5040963 L13.8779498,85.5040963 L13.8779498,84.3114712 L7.56654905,84.3114712 L7.56654905,82.1469361 Z M13.8779498,73.2238741 L6.57097586,73.2238741 L6.57097586,74.4168172 L9.6910168,74.4168172 L9.6910168,77.607964 L6.57097586,77.607964 L6.57097586,78.8005891 L13.8779498,78.8005891 L13.8779498,77.607964 L10.68659,77.607964 L10.68659,74.4168172 L13.8779498,74.4168172 L13.8779498,73.2238741 Z M13.8779498,64.157379 L12.8826979,64.157379 L12.8826979,67.989363 L10.68659,67.989363 L10.68659,64.7202981 L9.701297,64.7202981 L9.701297,67.989363 L7.56654905,67.989363 L7.56654905,64.157379 L6.57097586,64.157379 L6.57097586,69.1823061 L13.8779498,69.1823061 L13.8779498,64.157379 Z M11.8154846,50.3423278 C10.8915515,50.3423278 10.3476646,50.9166961 10.1218215,51.5238218 C9.92714017,50.9939782 9.36269289,50.4638166 8.5720812,50.4638166 C7.34070589,50.4638166 6.57097586,51.3803887 6.57097586,52.8379356 L6.57097586,55.8970985 L13.8779498,55.8970985 L13.8779498,52.7164469 C13.8779498,51.3253689 13.1596208,50.3423278 11.8154846,50.3423278 L11.8154846,50.3423278 Z M11.7640835,51.5349529 C12.4107724,51.5349529 12.8826979,51.9989636 12.8826979,52.8271225 L12.8826979,54.7047914 L10.6557494,54.7047914 L10.6557494,52.8271225 C10.6557494,51.9989636 11.1173947,51.5349529 11.7640835,51.5349529 L11.7640835,51.5349529 Z M8.613202,51.6564417 C9.29073148,51.6564417 9.6601762,52.1754721 9.6601762,52.9374801 L9.6601762,54.7047914 L7.56654905,54.7047914 L7.56654905,52.9374801 C7.56654905,52.1754721 7.93599377,51.6564417 8.613202,51.6564417 L8.613202,51.6564417 Z M13.8779498,40.8563467 L10.6454692,42.6672287 C10.419626,41.783732 9.75269801,41.0990062 8.70572381,41.0990062 C7.46374705,41.0990062 6.57097586,42.0489719 6.57097586,43.5395942 L6.57097586,46.587626 L13.8779498,46.587626 L13.8779498,45.3946828 L10.799351,45.3946828 L10.799351,43.9043785 L13.8779498,42.2477427 L13.8779498,40.8563467 Z M8.71600401,42.2916313 C9.43433304,42.2916313 9.8548575,42.8329241 9.8548575,43.6280075 L9.8548575,45.3946828 L7.56654905,45.3946828 L7.56654905,43.6280075 C7.56654905,42.8329241 7.99767498,42.2916313 8.71600401,42.2916313 L8.71600401,42.2916313 Z M6.57097586,37.3665667 L13.8779498,37.3665667 L13.8779498,36.1739416 L6.57097586,36.1739416 L6.57097586,37.3665667 Z M10.1732225,26.5442094 C9.11628933,26.5442094 8.04907598,26.4888716 7.25846429,27.3392928 C6.79681902,27.836379 6.57097586,28.5538622 6.57097586,29.371208 L6.57097586,32.1320556 L13.8779498,32.1320556 L13.8779498,29.371208 C13.8779498,28.5538622 13.6524279,27.836379 13.1904614,27.3392928 C12.4004922,26.4888716 11.2301556,26.5442094 10.1732225,26.5442094 L10.1732225,26.5442094 Z M10.1732225,27.7368345 C11.1787546,27.7368345 11.9693663,27.7476477 12.3898908,28.1563205 C12.7288161,28.4877113 12.8826979,28.9294596 12.8826979,29.4926967 L12.8826979,30.9394305 L7.56654905,30.9394305 L7.56654905,29.4926967 C7.56654905,28.9294596 7.72043081,28.4877113 8.05903492,28.1563205 C8.4802019,27.7476477 9.16769033,27.7368345 10.1732225,27.7368345 L10.1732225,27.7368345 Z M11.0457545,17.3784879 L9.92714017,17.3784879 L9.92714017,20.2496931 L10.8713124,20.2496931 L10.8713124,18.571113 L11.2815566,18.571113 C11.7538033,18.571113 12.1232481,18.6814706 12.4310116,18.9686547 C12.7593355,19.2777832 12.9440578,19.7303446 12.9440578,20.2496931 C12.9440578,20.7133858 12.7798959,21.1328718 12.5026517,21.4092428 C12.1129679,21.7956533 11.6921221,21.8840666 10.2246235,21.8840666 C8.75712481,21.8840666 8.34655929,21.7956533 7.95655417,21.4092428 C7.67931001,21.1328718 7.50486785,20.7133858 7.50486785,20.2496931 C7.50486785,19.3661964 7.97679332,18.7918282 8.77768521,18.5930573 L8.77768521,17.3893011 C7.52542825,17.6103342 6.50961591,18.5822442 6.50961591,20.2496931 C6.50961591,21.0889832 6.78653882,21.773709 7.28930489,22.3146837 C8.00795518,23.0875048 8.81880602,23.0766997 10.2246235,23.0766997 C11.6307622,23.0766997 12.4412918,23.0875048 13.1596208,22.3146837 C13.6623869,21.773709 13.9399523,21.0667208 13.9399523,20.2496931 C13.9399523,19.4212162 13.6935487,18.6814706 13.1082198,18.08484 C12.5951735,17.5661276 11.9896055,17.3784879 11.0457545,17.3784879 L11.0457545,17.3784879 Z M13.8779498,8.60999012 L12.8826979,8.60999012 L12.8826979,12.4422921 L10.68659,12.4422921 L10.68659,9.1732272 L9.701297,9.1732272 L9.701297,12.4422921 L7.56654905,12.4422921 L7.56654905,8.60999012 L6.57097586,8.60999012 L6.57097586,13.6349172 L13.8779498,13.6349172 L13.8779498,8.60999012 Z" id="Fill-2"></path>
                    <path d="M51.0710739,8.11646595 C55.3029828,12.4089622 57.1328585,18.8596329 56.5080151,27.2814743 L56.5051238,27.3511237 C56.50416,27.3972385 56.4081044,32.0033157 53.9829407,36.6167076 C50.7951147,42.6816038 45.2322411,45.9360392 37.4472377,46.2903284 C37.1359404,46.2903284 36.833317,46.2903284 36.5306936,46.2906464 C36.3893408,46.2890562 36.2711185,46.2896923 36.1692803,46.2906464 C33.698177,46.2912825 31.5341947,46.2938267 29.6448866,46.2979612 L20.4547083,46.2979612 L20.4547083,2.34161617 L35.8753308,2.34161617 L35.9328357,2.340026 C36.0227874,2.33589157 45.0160356,1.97460567 51.0710739,8.11646595 L51.0710739,8.11646595 Z M51.1035208,54.4262578 C55.3238644,58.7193902 57.1469938,65.16211 56.5237566,73.5709121 L56.5205441,73.6421516 C56.5202228,73.6873123 56.4373387,78.2196057 54.0356268,82.8323616 C50.8532621,88.9446448 45.2743256,92.2242048 37.4517353,92.5800842 C31.6469557,92.5800842 25.7522243,92.5899432 20.4547083,92.6033006 L20.4547083,48.6816212 C21.8434992,48.6638113 24.522134,48.6421851 29.6596644,48.6313719 L35.8791859,48.6313719 L35.9354057,48.6300998 C36.026,48.625598 45.0684004,48.2866238 51.1035208,54.4262578 L51.1035208,54.4262578 Z M2.36476744,2.34161617 L18.097651,2.34161617 L18.097651,92.6093432 C10.6261938,92.6300154 4.66046479,92.6557761 2.35737855,92.6662712 L2.36476744,2.34161617 Z M35.8489878,0.00852342519 L1.23298158,0.00852342519 L1.23298158,0.00852342519 L0.00803140688,0.00852342519 L0,95 L2.35737855,95 C2.54113714,94.9980918 19.9198166,94.9134949 37.4787209,94.9134949 L37.5317281,94.9122228 C48.4191033,94.4259498 53.6549381,88.6561885 56.1308602,83.9012717 C58.691594,78.9828858 58.8653936,74.2231985 58.8763163,73.7095746 C58.9588792,72.5894611 59,71.5021051 59,70.4446442 C59,62.9101158 56.9118342,56.9775215 52.7740534,52.7797991 C50.0873872,50.0545712 46.9387544,48.469493 44.087605,47.5487864 C50.6370566,45.5706189 54.2033226,41.2882997 56.1167249,37.611516 C58.6761737,32.69313 58.8496521,27.9343968 58.860896,27.4201369 C58.9431376,26.3003414 58.9842584,25.2120313 58.9842584,24.1548884 C58.9842584,16.6178157 56.8957714,10.6842673 52.7576693,6.48654497 C46.0919229,-0.2748443 36.5798458,-0.0216897442 35.8489878,0.00852342519 L35.8489878,0.00852342519 Z" id="Fill-4"></path>
                </g>
            </g>
        </g>
    </g>
</svg>